<?xml version="1.0" encoding="UTF-8"?>
<svg width="800" height="600" viewBox="0 0 800 600" xmlns="http://www.w3.org/2000/svg">
  <defs>
    <linearGradient id="bg" x1="0%" y1="0%" x2="100%" y2="100%">
      <stop offset="0%" style="stop-color:#050a0a;stop-opacity:1" />
      <stop offset="100%" style="stop-color:#0a1a1a;stop-opacity:1" />
    </linearGradient>
    <filter id="glow">
      <feGaussianBlur stdDeviation="3" result="coloredBlur"/>
      <feMerge><feMergeNode in="coloredBlur"/><feMergeNode in="SourceGraphic"/></feMerge>
    </filter>
  </defs>
  <rect width="100%" height="100%" fill="url(#bg)"/>
  
  <!-- Tech stack bars -->
  <rect x="100" y="380" width="80" height="150" fill="#14b8a6" opacity="0.4"/>
  <rect x="200" y="300" width="80" height="230" fill="#14b8a6" opacity="0.5"/>
  <rect x="300" y="220" width="80" height="310" fill="#14b8a6" opacity="0.6"/>
  <rect x="400" y="180" width="80" height="350" fill="#14b8a6" opacity="0.7" filter="url(#glow)"/>
  <rect x="500" y="250" width="80" height="280" fill="#14b8a6" opacity="0.6"/>
  <rect x="600" y="320" width="80" height="210" fill="#14b8a6" opacity="0.5"/>
  
  <!-- Labels -->
  <text x="140" y="560" font-family="monospace" font-size="10" fill="#14b8a6" text-anchor="middle" opacity="0.7">PHP</text>
  <text x="240" y="560" font-family="monospace" font-size="10" fill="#14b8a6" text-anchor="middle" opacity="0.7">Vue</text>
  <text x="340" y="560" font-family="monospace" font-size="10" fill="#14b8a6" text-anchor="middle" opacity="0.7">Symfony</text>
  <text x="440" y="560" font-family="monospace" font-size="10" fill="#14b8a6" text-anchor="middle" opacity="0.7">Three.js</text>
  <text x="540" y="560" font-family="monospace" font-size="10" fill="#14b8a6" text-anchor="middle" opacity="0.7">Docker</text>
  <text x="640" y="560" font-family="monospace" font-size="10" fill="#14b8a6" text-anchor="middle" opacity="0.7">IA</text>
  
  <text x="400" y="100" font-family="monospace" font-size="24" fill="#14b8a6" text-anchor="middle" filter="url(#glow)">TECH STACK</text>
  <rect x="320" y="125" width="160" height="24" rx="4" fill="#14b8a6" opacity="0.2"/>
  <text x="400" y="142" font-family="monospace" font-size="11" fill="#14b8a6" text-anchor="middle" opacity="0.7">INFOGRAPHIE</text>
  
  <path d="M 20 20 L 20 60 M 20 20 L 60 20" stroke="#14b8a6" stroke-width="2" opacity="0.5"/>
  <path d="M 780 20 L 780 60 M 780 20 L 740 20" stroke="#14b8a6" stroke-width="2" opacity="0.5"/>
  <path d="M 20 580 L 20 540 M 20 580 L 60 580" stroke="#14b8a6" stroke-width="2" opacity="0.5"/>
  <path d="M 780 580 L 780 540 M 780 580 L 740 580" stroke="#14b8a6" stroke-width="2" opacity="0.5"/>
</svg>
